<?xml version="1.0" encoding="UTF-8"?>
<svg id="Layer_2" data-name="Layer 2" xmlns="http://www.w3.org/2000/svg" viewBox="0 0 526.95 692.16">
  <defs>
    <style>
      .cls-1 {
        fill: #6ece91;
      }

      .cls-1, .cls-2, .cls-3 {
        stroke-width: 0px;
      }

      .cls-2 {
        fill: #2e3b69;
      }

      .cls-3 {
        fill: #d22d57;
      }
    </style>
  </defs>
  <g id="Layer_1-2" data-name="Layer 1">
    <g>
      <path class="cls-3" d="m318.77,346.08h-131.69C127.35,230.72,67.62,115.36,7.89,0h128.28c60.87,115.36,121.74,230.72,182.6,346.08Z"/>
      <path class="cls-2" d="m526.95,0c-61.21,115.36-122.42,230.72-183.62,346.07h-24.78c-61.21,115.36-122.41,230.72-183.62,346.08H0c62.37-115.36,124.73-230.72,187.1-346.08h21.29C270.76,230.72,333.13,115.36,395.5,0h131.45Z"/>
      <path class="cls-1" d="m525.93,692.16h-138.34c-59.73-115.36-119.46-230.72-179.2-346.08h134.93c60.87,115.36,121.74,230.72,182.6,346.08Z"/>
    </g>
  </g>
</svg>