<svg width="99" height="99" viewBox="0 0 99 99" fill="none" xmlns="http://www.w3.org/2000/svg">
<path fill-rule="evenodd" clip-rule="evenodd" d="M0 15.4688C0 6.9256 6.9256 0 15.4688 0H83.5312C92.0744 0 99 6.9256 99 15.4688V83.5312C99 92.0744 92.0744 99 83.5312 99H15.4688C6.9256 99 0 92.0744 0 83.5312V15.4688ZM49.5 24.75C63.1125 24.75 74.25 35.8875 74.25 49.5C74.25 61.875 65.2781 72.3937 52.9031 74.25V56.6156H58.7812L60.0187 49.5H53.2125V44.8594C53.2125 43.0031 54.1406 41.1469 57.2344 41.1469H60.3281V34.9594C60.3281 34.9594 57.5438 34.3406 54.7594 34.3406C49.1906 34.3406 45.4781 37.7437 45.4781 43.9312V49.5H39.2906V56.6156H45.4781V73.9406C33.7219 72.0844 24.75 61.875 24.75 49.5C24.75 35.8875 35.8875 24.75 49.5 24.75Z" fill="black"/>
</svg>
