<svg width="99" height="99" viewBox="0 0 99 99" fill="none" xmlns="http://www.w3.org/2000/svg">
<path d="M49.5 58.1625C44.8594 58.1625 40.8375 54.45 40.8375 49.5C40.8375 44.8594 44.55 40.8375 49.5 40.8375C54.1406 40.8375 58.1625 44.55 58.1625 49.5C58.1625 54.1406 54.1406 58.1625 49.5 58.1625Z" fill="black"/>
<path fill-rule="evenodd" clip-rule="evenodd" d="M60.0187 28.4625H38.9813C36.5063 28.7719 35.2688 29.0812 34.3406 29.3906C33.1031 29.7 32.175 30.3187 31.2469 31.2469C30.5125 31.9813 30.1655 32.7157 29.7461 33.6034C29.6355 33.8373 29.5196 34.0826 29.3906 34.3406C29.3428 34.4842 29.2875 34.6352 29.2283 34.797C28.9046 35.6812 28.4625 36.8891 28.4625 38.9812V60.0187C28.7719 62.4937 29.0812 63.7312 29.3906 64.6594C29.7 65.8969 30.3188 66.825 31.2469 67.7531C31.9813 68.4875 32.7157 68.8345 33.6034 69.2539C33.8375 69.3646 34.0823 69.4802 34.3406 69.6094C34.4842 69.6572 34.6352 69.7125 34.797 69.7717C35.6812 70.0954 36.8891 70.5375 38.9813 70.5375H60.0187C62.4937 70.2281 63.7313 69.9187 64.6594 69.6094C65.8969 69.3 66.825 68.6812 67.7531 67.7531C68.4875 67.0187 68.8345 66.2843 69.2539 65.3966C69.3645 65.1625 69.4803 64.9176 69.6094 64.6594C69.6572 64.5158 69.7125 64.3648 69.7717 64.203C70.0954 63.3187 70.5375 62.1109 70.5375 60.0187V38.9812C70.2281 36.5062 69.9188 35.2687 69.6094 34.3406C69.3 33.1031 68.6812 32.175 67.7531 31.2469C67.0187 30.5125 66.2843 30.1655 65.3966 29.746C65.1628 29.6356 64.9172 29.5195 64.6594 29.3906C64.5158 29.3428 64.3648 29.2875 64.203 29.2283C63.3188 28.9046 62.1109 28.4625 60.0187 28.4625ZM49.5 36.1969C42.075 36.1969 36.1969 42.075 36.1969 49.5C36.1969 56.925 42.075 62.8031 49.5 62.8031C56.925 62.8031 62.8031 56.925 62.8031 49.5C62.8031 42.075 56.925 36.1969 49.5 36.1969ZM66.2062 35.8875C66.2062 37.5961 64.8211 38.9812 63.1125 38.9812C61.4039 38.9812 60.0187 37.5961 60.0187 35.8875C60.0187 34.1789 61.4039 32.7937 63.1125 32.7937C64.8211 32.7937 66.2062 34.1789 66.2062 35.8875Z" fill="black"/>
<path fill-rule="evenodd" clip-rule="evenodd" d="M0 15.4688C0 6.9256 6.9256 0 15.4688 0H83.5312C92.0744 0 99 6.9256 99 15.4688V83.5312C99 92.0744 92.0744 99 83.5312 99H15.4688C6.9256 99 0 92.0744 0 83.5312V15.4688ZM38.9813 23.8219H60.0187C62.8031 24.1312 64.6594 24.4406 66.2062 25.0594C68.0625 25.9875 69.3 26.6062 70.8469 28.1531C72.3937 29.7 73.3219 31.2469 73.9406 32.7937C74.5594 34.3406 75.1781 36.1969 75.1781 38.9812V60.0187C74.8687 62.8031 74.5594 64.6594 73.9406 66.2062C73.0125 68.0625 72.3937 69.3 70.8469 70.8469C69.3 72.3937 67.7531 73.3219 66.2062 73.9406C64.6594 74.5594 62.8031 75.1781 60.0187 75.1781H38.9813C36.1969 74.8687 34.3406 74.5594 32.7938 73.9406C30.9375 73.0125 29.7 72.3937 28.1531 70.8469C26.6063 69.3 25.6781 67.7531 25.0594 66.2062C24.4406 64.6594 23.8219 62.8031 23.8219 60.0187V38.9812C24.1312 36.1969 24.4406 34.3406 25.0594 32.7937C25.9875 30.9375 26.6063 29.7 28.1531 28.1531C29.7 26.6062 31.2469 25.6781 32.7938 25.0594C34.3406 24.4406 36.1969 23.8219 38.9813 23.8219Z" fill="black"/>
</svg>
