<svg width="99" height="99" viewBox="0 0 99 99" fill="none" xmlns="http://www.w3.org/2000/svg">
<path d="M57.5438 49.5L44.55 42.075V56.925L57.5438 49.5Z" fill="black"/>
<path fill-rule="evenodd" clip-rule="evenodd" d="M0 15.4688C0 6.9256 6.9256 0 15.4688 0H83.5312C92.0744 0 99 6.9256 99 15.4688V83.5312C99 92.0744 92.0744 99 83.5312 99H15.4688C6.9256 99 0 92.0744 0 83.5312V15.4688ZM68.6813 33.1031C70.8469 33.7219 72.3938 35.2688 73.0125 37.4344C74.25 41.4563 74.25 49.5 74.25 49.5C74.25 49.5 74.25 57.5438 73.3219 61.5656C72.7032 63.7313 71.1562 65.2781 68.9906 65.8969C64.9687 66.825 49.5 66.825 49.5 66.825C49.5 66.825 33.7219 66.825 30.0094 65.8969C27.8437 65.2781 26.2969 63.7313 25.6781 61.5656C24.75 57.5438 24.75 49.5 24.75 49.5C24.75 49.5 24.75 41.4563 25.3687 37.4344C25.9875 35.2688 27.5344 33.7219 29.7 33.1031C33.7219 32.175 49.1906 32.175 49.1906 32.175C49.1906 32.175 64.9688 32.175 68.6813 33.1031Z" fill="black"/>
</svg>
